<?xml version="1.0" standalone="no"?>
<!DOCTYPE svg PUBLIC "-//W3C//DTD SVG 20010904//EN"
 "http://www.w3.org/TR/2001/REC-SVG-20010904/DTD/svg10.dtd">
<svg version="1.0" xmlns="http://www.w3.org/2000/svg"
 width="700.000000pt" height="700.000000pt" viewBox="0 0 700.000000 700.000000"
 preserveAspectRatio="xMidYMid meet">
<metadata>
Created by potrace 1.11, written by Peter Selinger 2001-2013
</metadata>
<g transform="translate(0.000000,700.000000) scale(0.100000,-0.100000)"
fill="#000000" stroke="none">
<path d="M584 3503 l1 -3498 2916 -3 2915 -2 -1 2142 c-2 2131 -2 2143 -22
2209 -64 207 -204 457 -423 760 -46 63 -86 116 -89 119 -3 3 -19 23 -36 45
-245 328 -739 830 -1110 1127 -390 313 -696 491 -976 569 l-84 24 -1546 3
-1545 3 0 -3498z m2881 2903 c308 -46 517 -224 618 -528 91 -272 103 -675 31
-1053 -2 -11 -7 -40 -10 -65 -4 -25 -10 -55 -15 -68 -10 -27 -21 -27 149 8 57
11 122 23 145 26 23 3 48 7 55 10 55 18 498 26 617 11 462 -57 724 -286 771
-672 7 -58 12 -3429 6 -3471 l-4 -21 -2326 1 c-1846 0 -2328 3 -2332 13 -4 9
-5 5736 -1 5803 1 14 118 16 1124 15 617 -1 1145 -5 1172 -9z"/>
<path d="M2043 2918 l2 -583 725 0 725 0 3 583 2 582 -729 0 -729 0 1 -582z"/>
<path d="M4084 3355 l-1 -145 438 0 438 0 -1 145 0 145 -437 0 -437 0 0 -145z"/>
<path d="M4089 2620 c-4 -13 -5 -266 -2 -276 3 -8 131 -11 436 -10 l432 1 2
145 1 145 -434 0 c-239 0 -435 -2 -435 -5z"/>
<path d="M2041 1605 l1 -145 131 0 c160 -1 2588 -1 2704 0 l81 0 0 145 0 145
-1459 0 -1458 0 0 -145z"/>
</g>
</svg>
